<svg width="18" height="18" viewBox="0 0 18 18" fill="none" xmlns="http://www.w3.org/2000/svg">
<path d="M9 1.6875C7.55373 1.6875 6.13993 2.11637 4.9374 2.91988C3.73486 3.72339 2.7976 4.86544 2.24413 6.20163C1.69067 7.53781 1.54586 9.00811 1.82801 10.4266C2.11017 11.8451 2.80661 13.148 3.82929 14.1707C4.85196 15.1934 6.15492 15.8898 7.57341 16.172C8.99189 16.4541 10.4622 16.3093 11.7984 15.7559C13.1346 15.2024 14.2766 14.2651 15.0801 13.0626C15.8836 11.8601 16.3125 10.4463 16.3125 9C16.3105 7.06123 15.5394 5.20246 14.1685 3.83154C12.7975 2.46063 10.9388 1.68955 9 1.6875ZM9 15.1875C7.77623 15.1875 6.57994 14.8246 5.56241 14.1447C4.54488 13.4648 3.75182 12.4985 3.2835 11.3679C2.81518 10.2372 2.69265 8.99314 2.93139 7.79288C3.17014 6.59262 3.75944 5.49012 4.62478 4.62478C5.49012 3.75944 6.59263 3.17014 7.79288 2.93139C8.99314 2.69265 10.2372 2.81518 11.3679 3.2835C12.4985 3.75181 13.4648 4.54488 14.1447 5.56241C14.8246 6.57994 15.1875 7.77623 15.1875 9C15.1856 10.6405 14.5332 12.2132 13.3732 13.3732C12.2132 14.5331 10.6405 15.1856 9 15.1875ZM8.4375 9.5625V5.625C8.4375 5.47582 8.49677 5.33274 8.60226 5.22725C8.70775 5.12176 8.85082 5.0625 9 5.0625C9.14919 5.0625 9.29226 5.12176 9.39775 5.22725C9.50324 5.33274 9.5625 5.47582 9.5625 5.625V9.5625C9.5625 9.71169 9.50324 9.85476 9.39775 9.96025C9.29226 10.0657 9.14919 10.125 9 10.125C8.85082 10.125 8.70775 10.0657 8.60226 9.96025C8.49677 9.85476 8.4375 9.71169 8.4375 9.5625ZM9.84375 12.0938C9.84375 12.2606 9.79427 12.4238 9.70156 12.5625C9.60884 12.7013 9.47707 12.8094 9.32289 12.8733C9.16872 12.9371 8.99907 12.9538 8.8354 12.9213C8.67173 12.8887 8.52138 12.8084 8.40338 12.6904C8.28538 12.5724 8.20502 12.422 8.17247 12.2584C8.13991 12.0947 8.15662 11.925 8.22048 11.7709C8.28434 11.6167 8.39249 11.4849 8.53124 11.3922C8.67 11.2995 8.83313 11.25 9 11.25C9.22378 11.25 9.43839 11.3389 9.59663 11.4971C9.75486 11.6554 9.84375 11.87 9.84375 12.0938Z" fill="#0A1322"/>
</svg>
