<svg width="18" height="18" viewBox="0 0 18 18" fill="none" xmlns="http://www.w3.org/2000/svg">
<path d="M15.6008 5.84722C16.3814 7.47974 16.5295 9.34353 16.0167 11.0789C15.5039 12.8142 14.3665 14.2981 12.824 15.2441C11.2814 16.1902 9.44316 16.5313 7.66391 16.2017C5.88466 15.872 4.29058 14.895 3.18933 13.4592C2.08807 12.0233 1.55771 10.2305 1.7006 8.42659C1.8435 6.62271 2.64952 4.93571 3.9631 3.69116C5.27668 2.44662 7.0047 1.73276 8.81366 1.68736C10.6226 1.64197 12.3843 2.26826 13.7586 3.44535L15.3526 1.85066C15.4581 1.74511 15.6013 1.68582 15.7506 1.68582C15.8998 1.68582 16.043 1.74511 16.1485 1.85066C16.2541 1.95621 16.3134 2.09936 16.3134 2.24863C16.3134 2.3979 16.2541 2.54105 16.1485 2.6466L9.39854 9.3966C9.29299 9.50215 9.14984 9.56144 9.00057 9.56144C8.8513 9.56144 8.70815 9.50215 8.6026 9.3966C8.49705 9.29105 8.43776 9.1479 8.43776 8.99863C8.43776 8.84936 8.49705 8.70621 8.6026 8.60066L10.5517 6.6516C10.0234 6.30225 9.39278 6.14141 8.76177 6.19509C8.13076 6.24878 7.53633 6.51386 7.07472 6.94742C6.61311 7.38098 6.31133 7.95764 6.21825 8.58405C6.12516 9.21047 6.2462 9.84996 6.56179 10.399C6.87738 10.9481 7.36904 11.3746 7.95717 11.6094C8.5453 11.8443 9.19549 11.8738 9.80247 11.6931C10.4094 11.5125 10.9377 11.1323 11.3017 10.614C11.6657 10.0958 11.8441 9.46988 11.8081 8.83761C11.804 8.76375 11.8144 8.68978 11.8389 8.61995C11.8633 8.55011 11.9012 8.48577 11.9505 8.4306C11.9998 8.37543 12.0595 8.33051 12.1262 8.2984C12.1928 8.26629 12.2651 8.24763 12.339 8.24347C12.4882 8.23508 12.6346 8.2863 12.746 8.38585C12.8012 8.43515 12.8461 8.49483 12.8782 8.56148C12.9103 8.62814 12.929 8.70046 12.9331 8.77433C12.9844 9.66926 12.7288 10.5549 12.2086 11.2849C11.6883 12.0148 10.9346 12.5454 10.0719 12.789C9.20922 13.0325 8.28927 12.9744 7.46409 12.6243C6.63891 12.2742 5.9579 11.6529 5.53361 10.8633C5.10932 10.0737 4.96716 9.16296 5.13061 8.2816C5.29407 7.40024 5.75336 6.60103 6.43257 6.01606C7.11179 5.4311 7.97027 5.0954 8.86612 5.06444C9.76198 5.03349 10.6416 5.30913 11.3596 5.84582L12.9592 4.24621C11.7869 3.27294 10.2964 2.76709 8.77392 2.82581C7.25143 2.88453 5.80432 3.50368 4.71051 4.56435C3.61671 5.62501 2.95335 7.0524 2.84783 8.57237C2.74232 10.0923 3.2021 11.5977 4.13885 12.7993C5.07561 14.0009 6.4233 14.8141 7.92307 15.0826C9.42284 15.3511 10.9689 15.0561 12.2644 14.2541C13.5599 13.4522 14.5134 12.1998 14.9418 10.7377C15.3702 9.27555 15.2433 7.70666 14.5855 6.33238C14.5212 6.19774 14.5129 6.04306 14.5627 5.90236C14.6124 5.76167 14.7159 5.64648 14.8506 5.58215C14.9852 5.51781 15.1399 5.50959 15.2806 5.55931C15.4213 5.60902 15.5365 5.71258 15.6008 5.84722Z" fill="#0A1322"/>
</svg>
