<svg width="20" height="20" viewBox="0 0 20 20" fill="none" xmlns="http://www.w3.org/2000/svg">
<path d="M17.5003 3.75V16.25C17.5003 16.5815 17.3687 16.8995 17.1342 17.1339C16.8998 17.3683 16.5819 17.5 16.2503 17.5H10.6253C10.4596 17.5 10.3006 17.4342 10.1834 17.3169C10.0662 17.1997 10.0003 17.0408 10.0003 16.875C10.0003 16.7092 10.0662 16.5503 10.1834 16.4331C10.3006 16.3158 10.4596 16.25 10.6253 16.25H16.2503V3.75H3.75035V11.25C3.75035 11.4158 3.6845 11.5747 3.56729 11.6919C3.45008 11.8092 3.29111 11.875 3.12535 11.875C2.95959 11.875 2.80062 11.8092 2.68341 11.6919C2.5662 11.5747 2.50035 11.4158 2.50035 11.25V3.75C2.50035 3.41848 2.63204 3.10054 2.86646 2.86612C3.10088 2.6317 3.41883 2.5 3.75035 2.5H16.2503C16.5819 2.5 16.8998 2.6317 17.1342 2.86612C17.3687 3.10054 17.5003 3.41848 17.5003 3.75ZM9.81754 12.0578C9.75949 11.9997 9.69056 11.9536 9.61469 11.9221C9.53881 11.8907 9.45748 11.8745 9.37535 11.8745C9.29321 11.8745 9.21188 11.8907 9.13601 11.9221C9.06014 11.9536 8.99121 11.9997 8.93316 12.0578L5.00035 15.9914L3.56753 14.5578C3.50947 14.4997 3.44053 14.4537 3.36466 14.4223C3.28879 14.3908 3.20747 14.3747 3.12535 14.3747C3.04323 14.3747 2.96191 14.3908 2.88604 14.4223C2.81017 14.4537 2.74123 14.4997 2.68316 14.5578C2.62509 14.6159 2.57903 14.6848 2.5476 14.7607C2.51618 14.8366 2.5 14.9179 2.5 15C2.5 15.0821 2.51618 15.1634 2.5476 15.2393C2.57903 15.3152 2.62509 15.3841 2.68316 15.4422L4.55816 17.3172C4.61621 17.3753 4.68514 17.4214 4.76101 17.4529C4.83688 17.4843 4.91821 17.5005 5.00035 17.5005C5.08248 17.5005 5.16381 17.4843 5.23969 17.4529C5.31556 17.4214 5.38449 17.3753 5.44254 17.3172L9.81754 12.9422C9.87565 12.8841 9.92174 12.8152 9.9532 12.7393C9.98465 12.6635 10.0008 12.5821 10.0008 12.5C10.0008 12.4179 9.98465 12.3365 9.9532 12.2607C9.92174 12.1848 9.87565 12.1159 9.81754 12.0578Z" fill="#FEFEFE"/>
</svg>
