<svg width="20" height="20" viewBox="0 0 20 20" fill="none" xmlns="http://www.w3.org/2000/svg">
<path d="M16.25 2.5H3.75C3.41848 2.5 3.10054 2.6317 2.86612 2.86612C2.6317 3.10054 2.5 3.41848 2.5 3.75V16.25C2.5 16.5815 2.6317 16.8995 2.86612 17.1339C3.10054 17.3683 3.41848 17.5 3.75 17.5H16.25C16.5815 17.5 16.8995 17.3683 17.1339 17.1339C17.3683 16.8995 17.5 16.5815 17.5 16.25V3.75C17.5 3.41848 17.3683 3.10054 17.1339 2.86612C16.8995 2.6317 16.5815 2.5 16.25 2.5ZM6.25 15.625C6.1679 15.6251 6.08659 15.609 6.01072 15.5776C5.93485 15.5462 5.8659 15.5002 5.80781 15.4422L4.55781 14.1922C4.44054 14.0749 4.37465 13.9159 4.37465 13.75C4.37465 13.5841 4.44054 13.4251 4.55781 13.3078C4.67509 13.1905 4.83415 13.1247 5 13.1247C5.16585 13.1247 5.32491 13.1905 5.44219 13.3078L6.25 14.1164L8.93281 11.4328C9.05009 11.3155 9.20915 11.2497 9.375 11.2497C9.54085 11.2497 9.69991 11.3155 9.81719 11.4328C9.93446 11.5501 10.0003 11.7091 10.0003 11.875C10.0003 12.0409 9.93446 12.1999 9.81719 12.3172L6.69219 15.4422C6.6341 15.5002 6.56515 15.5462 6.48928 15.5776C6.41341 15.609 6.3321 15.6251 6.25 15.625ZM15.625 15C15.625 15.1658 15.5592 15.3247 15.4419 15.4419C15.3247 15.5592 15.1658 15.625 15 15.625H10.625C10.4592 15.625 10.3003 15.5592 10.1831 15.4419C10.0658 15.3247 10 15.1658 10 15C10 14.8342 10.0658 14.6753 10.1831 14.5581C10.3003 14.4408 10.4592 14.375 10.625 14.375H14.375V5.625H5.625V10.625C5.625 10.7908 5.55915 10.9497 5.44194 11.0669C5.32473 11.1842 5.16576 11.25 5 11.25C4.83424 11.25 4.67527 11.1842 4.55806 11.0669C4.44085 10.9497 4.375 10.7908 4.375 10.625V5C4.375 4.83424 4.44085 4.67527 4.55806 4.55806C4.67527 4.44085 4.83424 4.375 5 4.375H15C15.1658 4.375 15.3247 4.44085 15.4419 4.55806C15.5592 4.67527 15.625 4.83424 15.625 5V15Z" fill="#FEFEFE"/>
</svg>
