<svg width="20" height="20" viewBox="0 0 20 20" fill="none" xmlns="http://www.w3.org/2000/svg">
<g clip-path="url(#clip0_1293_684)">
<path d="M19.8665 8.43036L17.8728 4.4413C17.7993 4.29447 17.6977 4.16356 17.5736 4.05602C17.4496 3.94849 17.3056 3.86644 17.1498 3.81457C16.9941 3.7627 16.8296 3.74202 16.6659 3.75371C16.5021 3.7654 16.3423 3.80923 16.1954 3.8827L14.2525 4.8538L10.1595 3.77099C10.0545 3.74366 9.94422 3.74366 9.8392 3.77099L5.74623 4.8538L3.80326 3.8827C3.65645 3.80923 3.4966 3.7654 3.33285 3.75371C3.1691 3.74202 3.00465 3.7627 2.84889 3.81457C2.69313 3.86644 2.54911 3.94849 2.42506 4.05602C2.30102 4.16356 2.19937 4.29447 2.12592 4.4413L0.132168 8.42958C0.0586961 8.57639 0.0148635 8.73624 0.00317326 8.89999C-0.00851699 9.06374 0.0121641 9.22819 0.0640355 9.38395C0.115907 9.53971 0.197953 9.68373 0.305487 9.80778C0.413022 9.93182 0.543939 10.0335 0.690762 10.1069L2.80014 11.1624L7.13529 14.2585C7.19917 14.3039 7.27098 14.3371 7.34701 14.3561L12.347 15.6061C12.4517 15.6324 12.5614 15.6311 12.6655 15.6023C12.7696 15.5736 12.8644 15.5184 12.9408 15.4421L17.2431 11.139L19.3072 10.1069C19.6035 9.95859 19.8288 9.69866 19.9335 9.38428C20.0383 9.06989 20.0139 8.72678 19.8658 8.43036H19.8665ZM15.5783 11.0374L12.89 8.88427C12.7695 8.78782 12.6177 8.73933 12.4637 8.74813C12.3096 8.75692 12.1643 8.82239 12.0556 8.93192C10.6642 10.3335 9.11342 10.1561 8.12436 9.53114L11.5025 6.24989H13.9876L16.1134 10.5007L15.5783 11.0374ZM3.24389 4.99989L4.84311 5.79833L2.84545 9.78661L1.24936 8.98895L3.24389 4.99989ZM12.3064 14.3069L7.76654 13.1725L3.92279 10.4272L6.11029 6.05224L9.99936 5.02177L10.765 5.22411L7.24936 8.63661L7.24311 8.64364C7.11077 8.77598 7.00983 8.93635 6.94775 9.11291C6.88567 9.28947 6.86404 9.47771 6.88443 9.66375C6.90483 9.84979 6.96674 10.0289 7.0656 10.1878C7.16446 10.3467 7.29774 10.4814 7.45561 10.5819C9.06186 11.6077 11.0001 11.4413 12.5267 10.1913L14.6869 11.9265L12.3064 14.3069ZM17.1501 9.78583L15.1564 5.80145L16.7548 4.99989L18.7494 8.98895L17.1501 9.78583ZM10.2947 17.0257C10.2609 17.1608 10.183 17.2807 10.0733 17.3665C9.96362 17.4522 9.82844 17.4989 9.6892 17.4991C9.63785 17.499 9.58669 17.4927 9.53686 17.4804L6.28139 16.6663C6.20524 16.6475 6.13339 16.6144 6.06967 16.5686L4.01107 15.0983C3.8845 14.9989 3.80113 14.8546 3.77834 14.6953C3.75555 14.536 3.79509 14.374 3.88872 14.2431C3.98236 14.1122 4.12287 14.0225 4.281 13.9926C4.43914 13.9627 4.6027 13.995 4.73764 14.0827L6.69936 15.4843L9.84311 16.2686C10.0039 16.3089 10.1421 16.4113 10.2274 16.5534C10.3126 16.6955 10.338 16.8657 10.2978 17.0265L10.2947 17.0257Z" fill="#FEFEFE"/>
</g>
<defs>
<clipPath id="clip0_1293_684">
<rect width="20" height="20" fill="white"/>
</clipPath>
</defs>
</svg>
