<svg width="20" height="20" viewBox="0 0 20 20" fill="none" xmlns="http://www.w3.org/2000/svg">
<path d="M18.0408 17.1877C17.9859 17.2827 17.907 17.3616 17.8119 17.4165C17.7169 17.4713 17.6091 17.5002 17.4994 17.5002H2.49936C2.3897 17.5001 2.28201 17.4711 2.18708 17.4162C2.09216 17.3613 2.01335 17.2824 1.95857 17.1874C1.90379 17.0924 1.87497 16.9847 1.875 16.875C1.87503 16.7654 1.90391 16.6576 1.95873 16.5627C3.14858 14.5056 4.98217 13.0306 7.12202 12.3314C6.06355 11.7013 5.24119 10.7412 4.78122 9.59845C4.32126 8.45573 4.24911 7.19361 4.57588 6.00592C4.90264 4.81823 5.61023 3.77064 6.59 3.02402C7.56977 2.2774 8.76754 1.87305 9.99936 1.87305C11.2312 1.87305 12.4289 2.2774 13.4087 3.02402C14.3885 3.77064 15.0961 4.81823 15.4228 6.00592C15.7496 7.19361 15.6775 8.45573 15.2175 9.59845C14.7575 10.7412 13.9352 11.7013 12.8767 12.3314C15.0165 13.0306 16.8501 14.5056 18.04 16.5627C18.095 16.6576 18.124 16.7654 18.1241 16.8751C18.1242 16.9848 18.0955 17.0926 18.0408 17.1877Z" fill="#FEFEFE"/>
</svg>
