<svg width="20" height="20" viewBox="0 0 20 20" fill="none" xmlns="http://www.w3.org/2000/svg">
<g clip-path="url(#clip0_1293_1413)">
<path d="M11.2498 12.3189C12.2296 11.7087 12.984 10.796 13.3988 9.71885C13.8136 8.64171 13.8664 7.45877 13.549 6.34899C13.2317 5.23921 12.5615 4.26298 11.6399 3.56799C10.7184 2.873 9.5955 2.49707 8.44124 2.49707C7.28698 2.49707 6.16412 2.873 5.24254 3.56799C4.32097 4.26298 3.65081 5.23921 3.33347 6.34899C3.01612 7.45877 3.06885 8.64171 3.48369 9.71885C3.89852 10.796 4.65288 11.7087 5.63265 12.3189C4.01936 12.8471 2.5678 13.8338 1.40061 15.2229C1.34593 15.2854 1.30426 15.3582 1.27804 15.437C1.25182 15.5159 1.24158 15.5991 1.24791 15.682C1.25425 15.7648 1.27704 15.8455 1.31495 15.9195C1.35285 15.9934 1.40511 16.059 1.46868 16.1125C1.53224 16.166 1.60583 16.2063 1.68515 16.231C1.76446 16.2557 1.8479 16.2643 1.9306 16.2564C2.0133 16.2485 2.09359 16.2242 2.16678 16.1849C2.23997 16.1456 2.30459 16.0921 2.35686 16.0275C3.92561 14.1557 6.08655 13.1252 8.43733 13.1252C10.7881 13.1252 12.9491 14.1557 14.5209 16.0275C14.6276 16.1546 14.7804 16.234 14.9457 16.2483C15.111 16.2627 15.2752 16.2108 15.4022 16.1041C15.5292 15.9974 15.6086 15.8446 15.623 15.6793C15.6373 15.5141 15.5854 15.3499 15.4787 15.2229C14.3108 13.8338 12.8592 12.8471 11.2498 12.3189ZM4.37483 7.81269C4.37483 7.00921 4.61309 6.22377 5.05949 5.55569C5.50588 4.88762 6.14036 4.36691 6.88268 4.05943C7.62501 3.75195 8.44184 3.6715 9.22989 3.82825C10.0179 3.98501 10.7418 4.37192 11.31 4.94007C11.8781 5.50822 12.265 6.23209 12.4218 7.02014C12.5785 7.80819 12.4981 8.62502 12.1906 9.36735C11.8831 10.1097 11.3624 10.7441 10.6943 11.1905C10.0263 11.6369 9.24082 11.8752 8.43733 11.8752C7.36027 11.874 6.32768 11.4455 5.56608 10.6839C4.80448 9.92235 4.37607 8.88976 4.37483 7.81269ZM19.7069 11.1775L19.3428 10.9674C19.3855 10.7413 19.3855 10.5091 19.3428 10.283L19.7069 10.0729C19.778 10.0318 19.8403 9.97717 19.8903 9.91205C19.9402 9.84693 19.9769 9.7726 19.9982 9.69331C20.0194 9.61401 20.0249 9.53131 20.0141 9.44992C20.0034 9.36853 19.9768 9.29004 19.9358 9.21894C19.8947 9.14785 19.8401 9.08553 19.775 9.03555C19.7098 8.98556 19.6355 8.9489 19.5562 8.92764C19.4769 8.90639 19.3942 8.90096 19.3128 8.91166C19.2314 8.92237 19.153 8.949 19.0819 8.99004L18.717 9.20098C18.5424 9.05118 18.3417 8.9349 18.1248 8.85801V8.43769C18.1248 8.27193 18.059 8.11296 17.9418 7.99575C17.8246 7.87854 17.6656 7.81269 17.4998 7.81269C17.3341 7.81269 17.1751 7.87854 17.0579 7.99575C16.9407 8.11296 16.8748 8.27193 16.8748 8.43769V8.85801C16.658 8.9349 16.4572 9.05118 16.2826 9.20098L15.9178 8.99004C15.8467 8.949 15.7682 8.92237 15.6868 8.91166C15.6054 8.90096 15.5227 8.90639 15.4434 8.92764C15.3641 8.9489 15.2898 8.98556 15.2247 9.03555C15.1596 9.08553 15.1049 9.14785 15.0639 9.21894C15.0229 9.29004 14.9962 9.36853 14.9855 9.44992C14.9748 9.53131 14.9802 9.61401 15.0015 9.69331C15.0228 9.7726 15.0594 9.84693 15.1094 9.91205C15.1594 9.97717 15.2217 10.0318 15.2928 10.0729L15.6569 10.283C15.6142 10.5091 15.6142 10.7413 15.6569 10.9674L15.2928 11.1775C15.2217 11.2186 15.1594 11.2732 15.1094 11.3383C15.0594 11.4035 15.0228 11.4778 15.0015 11.5571C14.9802 11.6364 14.9748 11.7191 14.9855 11.8005C14.9962 11.8819 15.0229 11.9603 15.0639 12.0314C15.1049 12.1025 15.1596 12.1649 15.2247 12.2148C15.2898 12.2648 15.3641 12.3015 15.4434 12.3227C15.5227 12.344 15.6054 12.3494 15.6868 12.3387C15.7682 12.328 15.8467 12.3014 15.9178 12.2604L16.2826 12.0494C16.4572 12.1992 16.658 12.3155 16.8748 12.3924V12.8127C16.8748 12.9785 16.9407 13.1374 17.0579 13.2546C17.1751 13.3718 17.3341 13.4377 17.4998 13.4377C17.6656 13.4377 17.8246 13.3718 17.9418 13.2546C18.059 13.1374 18.1248 12.9785 18.1248 12.8127V12.3924C18.3417 12.3155 18.5424 12.1992 18.717 12.0494L19.0819 12.2604C19.1768 12.3154 19.2846 12.3443 19.3944 12.3439C19.532 12.344 19.6658 12.2986 19.775 12.2149C19.8842 12.1311 19.9627 12.0136 19.9983 11.8807C20.0339 11.7477 20.0247 11.6068 19.972 11.4796C19.9193 11.3525 19.8261 11.2463 19.7069 11.1775ZM16.8748 10.6252C16.8748 10.5016 16.9115 10.3807 16.9802 10.278C17.0488 10.1752 17.1465 10.0951 17.2607 10.0478C17.3749 10.0005 17.5005 9.98809 17.6218 10.0122C17.743 10.0363 17.8544 10.0958 17.9418 10.1833C18.0292 10.2707 18.0887 10.382 18.1128 10.5033C18.1369 10.6245 18.1246 10.7502 18.0773 10.8644C18.03 10.9786 17.9498 11.0762 17.8471 11.1449C17.7443 11.2135 17.6234 11.2502 17.4998 11.2502C17.3341 11.2502 17.1751 11.1843 17.0579 11.0671C16.9407 10.9499 16.8748 10.791 16.8748 10.6252Z" fill="#FEFEFE"/>
</g>
<defs>
<clipPath id="clip0_1293_1413">
<rect width="20" height="20" fill="white"/>
</clipPath>
</defs>
</svg>
