<svg width="107" height="29" viewBox="0 0 107 29" fill="none" xmlns="http://www.w3.org/2000/svg">
<path d="M45.3066 8.41642C44.9175 9.28423 44.5535 10.09 44.1937 10.8971C43.3736 12.7389 42.5479 14.5794 41.7446 16.4281C41.573 16.8227 41.322 17.0021 40.8952 16.9897C40.3945 16.9759 39.8924 16.9704 39.3931 16.9897C38.9301 17.009 38.6679 16.8117 38.4852 16.3936C37.382 13.873 36.2593 11.3592 35.1435 8.84411C35.0877 8.71994 35.0222 8.59991 34.9483 8.45229C34.813 8.59163 34.8646 8.73512 34.8632 8.85929C34.8604 12.2519 34.8604 15.6459 34.8604 19.0385C34.8604 19.611 34.8548 19.6165 34.2788 19.6165C33.4057 19.6165 32.5313 19.6165 31.6582 19.6165C31.0431 19.6165 31.0306 19.6055 31.0306 19.004C31.0306 13.1197 31.0292 7.23542 31.032 1.35252C31.032 0.120482 30.9079 0.321914 32.1031 0.309497C32.9385 0.301219 33.7739 0.317772 34.608 0.302596C34.9539 0.295698 35.1366 0.432284 35.276 0.745468C36.8339 4.24568 38.4043 7.74038 39.9719 11.2351C40.0277 11.3592 40.0933 11.4807 40.1602 11.6159C40.3387 11.5565 40.3471 11.3965 40.3973 11.2834C41.9231 7.82592 43.4503 4.36847 44.9552 0.901371C45.1448 0.465396 45.3805 0.279141 45.8715 0.297076C46.8338 0.332948 47.7975 0.316393 48.7613 0.302596C49.0904 0.298457 49.2131 0.403311 49.2131 0.741329C49.2062 6.89188 49.2062 13.0424 49.2131 19.1944C49.2131 19.5076 49.103 19.6248 48.7864 19.6207C47.8226 19.6083 46.8589 19.6165 45.8966 19.6165C45.4266 19.6165 45.4015 19.5917 45.4001 19.1157C45.3987 15.7093 45.4001 12.3043 45.3959 8.89792C45.3959 8.76547 45.4391 8.62337 45.308 8.41366L45.3066 8.41642Z" fill="white"/>
<path d="M56.2797 9.94096C56.2797 6.90294 56.2797 3.86491 56.2797 0.826889C56.2797 0.317792 56.2881 0.310894 56.793 0.309514C57.7818 0.309514 58.772 0.324686 59.7609 0.301232C60.1737 0.291574 60.415 0.436442 60.6158 0.795155C62.7971 4.67202 64.9923 8.54198 67.1848 12.4119C67.2224 12.4782 67.2657 12.5416 67.3005 12.6092C67.3368 12.6782 67.3703 12.7596 67.4637 12.7417C67.5711 12.721 67.5334 12.623 67.5348 12.554C67.539 12.2878 67.5362 12.0201 67.5362 11.7538C67.5362 8.11842 67.5362 4.483 67.5362 0.847583C67.5362 0.312273 67.5376 0.310894 68.0662 0.309514C69.0174 0.309514 69.9686 0.317791 70.9184 0.303994C71.2363 0.299855 71.3451 0.411608 71.3451 0.726172C71.3396 6.8781 71.3396 13.0314 71.3451 19.1833C71.3451 19.5186 71.221 19.6276 70.8919 19.6235C69.8765 19.6097 68.8612 19.6055 67.8473 19.6235C67.4623 19.6304 67.2378 19.4827 67.0523 19.1558C64.8598 15.2996 62.6576 11.4489 60.454 7.59829C60.3759 7.4617 60.3243 7.19543 60.1737 7.23268C59.9687 7.28511 60.09 7.53896 60.09 7.69763C60.083 11.4862 60.0844 15.2734 60.0844 19.0619C60.0844 19.6152 60.083 19.6166 59.5252 19.6166C58.6381 19.6166 57.7525 19.6166 56.8655 19.6166C56.475 19.6166 56.2793 19.4161 56.2783 19.015C56.2783 15.9894 56.2783 12.9638 56.2783 9.9382L56.2797 9.94096Z" fill="white"/>
<path d="M84.5155 8.87747C85.5824 8.87747 86.6479 8.87885 87.7149 8.8761C87.9743 8.8761 88.1751 8.91748 88.1737 9.24032C88.1612 11.0173 88.217 12.7999 87.832 14.5534C87.1905 17.4742 84.7442 19.5864 81.74 19.8582C80.2882 19.9893 78.8698 19.9107 77.4862 19.4374C75.2282 18.6648 73.8698 17.0865 73.2534 14.8307C73.0344 14.0278 72.9298 13.2096 72.9019 12.3873C72.8322 10.3303 72.7401 8.26628 73.033 6.22024C73.3273 4.16316 74.1362 2.36683 75.9939 1.19687C77.0762 0.515316 78.2728 0.163498 79.542 0.0517454C81.2714 -0.100018 82.959 0.0558848 84.521 0.871268C85.8669 1.57352 86.8836 2.59723 87.4722 4.01277C87.5991 4.3163 87.5405 4.48185 87.2351 4.60465C86.369 4.9537 85.5099 5.31793 84.6479 5.67527C84.0817 5.91119 84.0719 5.91671 83.7581 5.42003C82.7177 3.77547 81.0706 3.37537 79.3718 3.85825C78.0469 4.2349 77.429 5.28482 77.2798 6.56102C77.0134 8.83885 77.0232 11.1277 77.2756 13.4083C77.503 15.4585 79.2658 16.6036 81.429 16.158C83.0761 15.8186 83.8892 14.799 83.9659 12.9213C83.9994 12.0893 84.0873 12.1873 83.2519 12.1818C82.5964 12.1776 81.9409 12.1749 81.2867 12.1818C80.9953 12.1845 80.8739 12.0742 80.8795 11.7748C80.8934 10.9484 80.8948 10.1219 80.8795 9.29689C80.8739 8.97267 81.0162 8.87333 81.3174 8.87471C82.3844 8.88161 83.4499 8.87747 84.5169 8.87747H84.5155Z" fill="white"/>
<path d="M30.4308 19.1695C28.2621 13.012 26.0892 6.85593 23.9246 0.695717C23.8214 0.404607 23.6596 0.303891 23.3598 0.30665C22.2677 0.316308 21.1757 0.319068 20.0836 0.303892C19.7461 0.298373 19.5746 0.418404 19.4658 0.734347C19.0167 2.02709 18.5467 3.31432 18.085 4.60155C16.3598 9.41107 14.6318 14.2206 12.9066 19.0287C12.7071 19.5875 12.7294 19.6192 13.3417 19.6192C14.4212 19.6192 15.5007 19.6082 16.5802 19.6247C16.9191 19.6303 17.0948 19.5102 17.1924 19.1888C17.4937 18.2051 17.8242 17.2338 18.1227 16.2515C18.1952 16.0114 18.3054 15.9479 18.5495 15.9521C19.5913 15.9672 20.6317 15.959 21.6722 15.959C22.7126 15.959 23.7279 15.9659 24.7572 15.9534C24.9887 15.9507 25.0878 16.0128 25.1589 16.239C25.4727 17.2296 25.8186 18.2106 26.1366 19.1998C26.2314 19.5006 26.3876 19.6303 26.714 19.6261C27.8451 19.6109 28.9762 19.6206 30.1073 19.6192C30.5103 19.6192 30.5619 19.5502 30.4294 19.1708L30.4308 19.1695ZM22.8842 12.4118C21.8451 12.4118 20.8047 12.4049 19.7656 12.4174C19.5034 12.4187 19.4002 12.4049 19.5048 12.0918C20.1938 10.025 20.8619 7.95276 21.5383 5.88188C21.5606 5.81014 21.5969 5.74254 21.6778 5.55904C22.4393 7.89344 23.1659 10.1244 23.912 12.4118H22.8842Z" fill="white"/>
<path d="M0.00278997 9.94378C0.00278997 6.91955 0.00278997 3.89532 0.00278997 0.871091C0.00278997 0.497662 0.185029 0.31049 0.549507 0.30957C4.54389 0.30957 8.53967 0.30957 12.5341 0.30957C13.0752 0.30957 13.0975 0.333023 13.0975 0.868334C13.0975 1.70717 13.0989 2.54601 13.0975 3.38484C13.0975 3.88428 13.0724 3.90636 12.5857 3.90636C9.95249 3.90636 7.31932 3.91326 4.68615 3.89808C4.30958 3.89532 4.20638 4.00707 4.21196 4.3713C4.23288 5.53988 4.23288 6.70984 4.21196 7.87842C4.20638 8.23575 4.32632 8.32819 4.67778 8.32543C6.83536 8.31163 8.99434 8.31853 11.1519 8.31853C11.6568 8.31853 11.6735 8.33509 11.6749 8.82901C11.6763 9.69268 11.6624 10.5577 11.6819 11.4214C11.6903 11.7884 11.5522 11.9098 11.1868 11.907C9.05431 11.896 6.92183 11.9015 4.78936 11.9015C4.40907 11.9015 4.21893 12.0961 4.21893 12.4851C4.21893 14.6705 4.21893 16.8559 4.21893 19.0427C4.21893 19.5987 4.19661 19.618 3.63316 19.618C2.60528 19.618 1.57739 19.618 0.549507 19.618C0.184099 19.618 0.000929792 19.4304 0 19.0551C0 16.0184 0 12.9804 0 9.94378H0.00278997Z" fill="white"/>
<path d="M104.168 19.5518C103.384 19.5518 102.6 19.5338 101.817 19.56C101.494 19.5711 101.302 19.4607 101.119 19.211C99.9365 17.5954 98.7399 15.9908 97.5488 14.3822C97.3554 14.1209 97.1583 14.126 96.9574 14.3973C95.7803 15.984 94.5962 17.5664 93.4303 19.1627C93.2225 19.4483 93.0077 19.6097 92.6409 19.5573C92.3661 19.5173 91.9254 19.669 91.8445 19.4924C91.7357 19.2565 92.0914 19.0123 92.2601 18.7847C96.5962 12.9211 100.942 7.0644 105.27 1.1953C105.553 0.811756 105.842 0.614465 106.314 0.695865C106.536 0.733116 106.867 0.592391 106.96 0.770368C107.056 0.956623 106.772 1.15116 106.639 1.33051C104.554 4.14917 102.468 6.96645 100.367 9.77407C100.168 10.0417 100.193 10.2045 100.386 10.4611C102.55 13.364 104.701 16.2778 106.853 19.1889C106.918 19.2772 107.041 19.3696 106.987 19.4828C106.931 19.5987 106.78 19.549 106.673 19.549C105.837 19.5531 105.002 19.5518 104.168 19.5504V19.5518Z" fill="white"/>
<path d="M90.3744 0.694226C91.1973 0.694226 92.0188 0.702504 92.8416 0.690087C93.0732 0.685948 93.2252 0.760452 93.3591 0.942568C94.8319 2.94446 96.3074 4.94636 97.7914 6.93998C97.9574 7.1621 97.903 7.30973 97.7565 7.5084C94.8374 11.4391 91.9253 15.3753 89.0146 19.3115C88.8905 19.4798 88.7552 19.5722 88.5348 19.5556C88.2796 19.5377 88.0216 19.5543 87.7636 19.5487C87.6785 19.5474 87.5614 19.5888 87.5139 19.5046C87.4568 19.4011 87.5586 19.3183 87.6171 19.2383C87.9728 18.7554 88.3312 18.2753 88.6869 17.7938C90.5014 15.3449 92.3131 12.8932 94.1373 10.4512C94.3312 10.1918 94.3298 10.0139 94.1373 9.7545C92.0411 6.94412 89.9546 4.12546 87.871 1.30542C87.7468 1.1371 87.4833 0.948084 87.5725 0.771487C87.6604 0.597649 87.9686 0.702505 88.1778 0.699745C88.91 0.688708 89.6422 0.695607 90.3744 0.695607V0.694226Z" fill="white"/>
<path d="M94 25H0V29H94V25Z" fill="url(#paint0_linear_1_34011)"/>
<defs>
<linearGradient id="paint0_linear_1_34011" x1="0" y1="27" x2="94" y2="27" gradientUnits="userSpaceOnUse">
<stop offset="0.620192" stop-color="#F48513"/>
<stop offset="1" stop-color="white" stop-opacity="0"/>
</linearGradient>
</defs>
</svg>
