<svg width="20" height="20" viewBox="0 0 20 20" fill="none" xmlns="http://www.w3.org/2000/svg">
<path d="M13.0682 3.15781C12.9298 2.4454 12.5481 1.80323 11.9884 1.3412C11.4288 0.879166 10.7259 0.625992 10.0002 0.625C9.83444 0.625 9.67547 0.690848 9.55826 0.808058C9.44105 0.925268 9.3752 1.08424 9.3752 1.25C9.3752 1.41576 9.44105 1.57473 9.55826 1.69194C9.67547 1.80915 9.83444 1.875 10.0002 1.875C10.3972 1.875 10.784 2.00103 11.1048 2.23494C11.4256 2.46885 11.6639 2.79855 11.7854 3.17656C10.5961 3.34967 9.50871 3.94485 8.72196 4.85339C7.9352 5.76192 7.50154 6.92316 7.5002 8.125C7.5002 11.7773 5.48848 14.2187 1.52129 15.3906C1.24993 15.4697 1.01339 15.6385 0.850261 15.8693C0.687137 16.1001 0.607065 16.3794 0.62311 16.6616C0.639156 16.9438 0.750372 17.2123 0.93861 17.4231C1.12685 17.634 1.38099 17.7748 1.65957 17.8227C2.83381 18.0257 4.02339 18.1268 5.21504 18.125C8.40098 18.125 11.9463 17.4102 14.3971 15.3547C16.4564 13.6281 17.5002 11.1953 17.5002 8.125C17.4989 6.89768 17.0467 5.71362 16.2296 4.79784C15.4125 3.88207 14.2874 3.29842 13.0682 3.15781ZM12.5002 4.375C13.2805 4.37604 14.0411 4.62012 14.6764 5.07333C15.3116 5.52654 15.7899 6.16637 16.0447 6.90391L15.0002 7.42187L12.7799 6.31484C12.6931 6.27139 12.5973 6.24877 12.5002 6.24877C12.4031 6.24877 12.3073 6.27139 12.2205 6.31484L10.0002 7.42187L8.95567 6.9C9.21128 6.16326 9.68986 5.52434 10.325 5.07188C10.9602 4.61943 11.7204 4.37587 12.5002 4.375ZM13.5939 14.3984C12.1877 15.5758 10.1877 16.3719 7.80332 16.7008C5.83295 16.9613 3.83462 16.9244 1.8752 16.5914C6.34629 15.2734 8.72129 12.3727 8.7502 8.19922L9.72207 8.68515C9.8089 8.72861 9.90466 8.75123 10.0018 8.75123C10.0989 8.75123 10.1946 8.72861 10.2814 8.68515L12.5002 7.57266L14.7205 8.68281C14.8073 8.72626 14.9031 8.74888 15.0002 8.74888C15.0973 8.74888 15.1931 8.72626 15.2799 8.68281L16.2494 8.19844C16.233 10.8469 15.34 12.9328 13.5939 14.3977V14.3984Z" fill="#FEFEFE"/>
</svg>
