<svg width="20" height="20" viewBox="0 0 20 20" fill="none" xmlns="http://www.w3.org/2000/svg">
<path d="M17.5 7.5H14.375V4.375C14.375 4.20924 14.3092 4.05027 14.1919 3.93306C14.0747 3.81585 13.9158 3.75 13.75 3.75H4.375V3.125C4.375 2.95924 4.30915 2.80027 4.19194 2.68306C4.07473 2.56585 3.91576 2.5 3.75 2.5C3.58424 2.5 3.42527 2.56585 3.30806 2.68306C3.19085 2.80027 3.125 2.95924 3.125 3.125V16.875C3.125 17.0408 3.19085 17.1997 3.30806 17.3169C3.42527 17.4342 3.58424 17.5 3.75 17.5C3.91576 17.5 4.07473 17.4342 4.19194 17.3169C4.30915 17.1997 4.375 17.0408 4.375 16.875V16.25H11.25C11.4158 16.25 11.5747 16.1842 11.6919 16.0669C11.8092 15.9497 11.875 15.7908 11.875 15.625V12.5H17.5C17.6658 12.5 17.8247 12.4342 17.9419 12.3169C18.0592 12.1997 18.125 12.0408 18.125 11.875V8.125C18.125 7.95924 18.0592 7.80027 17.9419 7.68306C17.8247 7.56585 17.6658 7.5 17.5 7.5ZM13.125 5V7.5H4.375V5H13.125ZM10.625 15H4.375V12.5H10.625V15ZM16.875 11.25H4.375V8.75H16.875V11.25Z" fill="#FEFEFE"/>
</svg>
