<svg width="20" height="20" viewBox="0 0 20 20" fill="none" xmlns="http://www.w3.org/2000/svg">
<path d="M5.62501 6.87538V3.12537C5.62501 2.95961 5.69085 2.80064 5.80806 2.68343C5.92527 2.56622 6.08425 2.50037 6.25001 2.50037C6.41577 2.50037 6.57474 2.56622 6.69195 2.68343C6.80916 2.80064 6.87501 2.95961 6.87501 3.12537V6.87538C6.87501 7.04114 6.80916 7.20011 6.69195 7.31732C6.57474 7.43453 6.41577 7.50038 6.25001 7.50038C6.08425 7.50038 5.92527 7.43453 5.80806 7.31732C5.69085 7.20011 5.62501 7.04114 5.62501 6.87538ZM16.875 3.12537V17.5004C16.875 17.6661 16.8092 17.8251 16.6919 17.9423C16.5747 18.0595 16.4158 18.1254 16.25 18.1254C16.0842 18.1254 15.9253 18.0595 15.8081 17.9423C15.6909 17.8251 15.625 17.6661 15.625 17.5004V13.7504H11.875C11.7092 13.7504 11.5503 13.6845 11.4331 13.5673C11.3159 13.4501 11.25 13.2911 11.25 13.1254C11.279 11.6282 11.4681 10.1385 11.8141 8.68163C12.5781 5.51834 14.0266 3.39803 16.0039 2.55116C16.099 2.51045 16.2026 2.49395 16.3056 2.50314C16.4086 2.51234 16.5077 2.54694 16.594 2.60384C16.6803 2.66075 16.7512 2.73818 16.8002 2.8292C16.8493 2.92022 16.875 3.02198 16.875 3.12537ZM15.625 4.21131C13.1117 6.13084 12.6195 10.8066 12.5234 12.5004H15.625V4.21131ZM9.36641 3.02303C9.35417 2.94096 9.32571 2.86216 9.28269 2.7912C9.23968 2.72025 9.18296 2.65858 9.11585 2.60977C9.04875 2.56097 8.9726 2.52602 8.89184 2.50695C8.81109 2.48789 8.72735 2.4851 8.6455 2.49874C8.56365 2.51238 8.48534 2.54218 8.41514 2.5864C8.34493 2.63063 8.28423 2.68839 8.23658 2.75632C8.18893 2.82425 8.15529 2.90098 8.13761 2.98205C8.11992 3.06312 8.11856 3.1469 8.1336 3.2285L8.75001 6.92459C8.75001 7.58764 8.48661 8.22352 8.01777 8.69236C7.54893 9.1612 6.91305 9.42459 6.25001 9.42459C5.58696 9.42459 4.95108 9.1612 4.48224 8.69236C4.0134 8.22352 3.75001 7.58764 3.75001 6.92459L4.36563 3.2285C4.38067 3.1469 4.37931 3.06312 4.36162 2.98205C4.34394 2.90098 4.3103 2.82425 4.26265 2.75632C4.215 2.68839 4.1543 2.63063 4.08409 2.5864C4.01389 2.54218 3.93557 2.51238 3.85373 2.49874C3.77188 2.4851 3.68814 2.48789 3.60739 2.50695C3.52663 2.52602 3.45048 2.56097 3.38338 2.60977C3.31627 2.65858 3.25955 2.72025 3.21654 2.7912C3.17352 2.86216 3.14506 2.94096 3.13282 3.02303L2.50782 6.77303C2.50247 6.80688 2.49986 6.84111 2.50001 6.87538C2.50125 7.76116 2.81557 8.618 3.3874 9.29448C3.95924 9.97097 4.75179 10.4235 5.62501 10.5723V17.5004C5.62501 17.6661 5.69085 17.8251 5.80806 17.9423C5.92527 18.0595 6.08425 18.1254 6.25001 18.1254C6.41577 18.1254 6.57474 18.0595 6.69195 17.9423C6.80916 17.8251 6.87501 17.6661 6.87501 17.5004V10.5723C7.74822 10.4235 8.54077 9.97097 9.11261 9.29448C9.68444 8.618 9.99876 7.76116 10 6.87538C9.99989 6.84109 9.99702 6.80686 9.99141 6.77303L9.36641 3.02303Z" fill="#FEFEFE"/>
</svg>
