<svg width="20" height="20" viewBox="0 0 20 20" fill="none" xmlns="http://www.w3.org/2000/svg">
<path d="M17.475 5.16841L10.6 1.40669C10.4163 1.30519 10.2099 1.25195 10 1.25195C9.79013 1.25195 9.58369 1.30519 9.4 1.40669L2.525 5.16997C2.32866 5.2774 2.16477 5.43557 2.05043 5.62796C1.93609 5.82035 1.87551 6.03992 1.875 6.26372V13.7356C1.87551 13.9594 1.93609 14.179 2.05043 14.3714C2.16477 14.5638 2.32866 14.7219 2.525 14.8293L9.4 18.5926C9.58369 18.6941 9.79013 18.7474 10 18.7474C10.2099 18.7474 10.4163 18.6941 10.6 18.5926L17.475 14.8293C17.6713 14.7219 17.8352 14.5638 17.9496 14.3714C18.0639 14.179 18.1245 13.9594 18.125 13.7356V6.2645C18.1249 6.0403 18.0645 5.82025 17.9502 5.62741C17.8358 5.43456 17.6717 5.27603 17.475 5.16841ZM10 2.50044L16.2773 5.93794L13.9508 7.2106L7.67344 3.7731L10 2.50044ZM10 9.37544L3.72266 5.93794L6.37187 4.48716L12.6492 7.92466L10 9.37544ZM16.875 13.7387L10.625 17.1598V10.4559L13.125 9.08794V11.8754C13.125 12.0412 13.1908 12.2002 13.3081 12.3174C13.4253 12.4346 13.5842 12.5004 13.75 12.5004C13.9158 12.5004 14.0747 12.4346 14.1919 12.3174C14.3092 12.2002 14.375 12.0412 14.375 11.8754V8.40357L16.875 7.0356V13.7356V13.7387Z" fill="#FEFEFE"/>
</svg>
