<svg width="20" height="20" viewBox="0 0 20 20" fill="none" xmlns="http://www.w3.org/2000/svg">
<path d="M18.7509 8.75046C18.7497 7.59052 18.2883 6.47844 17.4681 5.65824C16.6479 4.83803 15.5358 4.3767 14.3759 4.37546C14.2376 4.37546 14.0993 4.38327 13.9626 4.39577C13.6099 3.64287 13.0499 3.00607 12.3482 2.55997C11.6466 2.11388 10.8323 1.87695 10.0009 1.87695C9.16945 1.87695 8.35522 2.11388 7.65358 2.55997C6.95193 3.00607 6.39194 3.64287 6.03918 4.39577C5.90246 4.38327 5.76418 4.37546 5.6259 4.37546C4.63276 4.3757 3.66925 4.71383 2.89377 5.33428C2.11828 5.95472 1.57697 6.82055 1.35881 7.78944C1.14066 8.75832 1.25864 9.7726 1.69337 10.6655C2.1281 11.5585 2.8537 12.2769 3.7509 12.7028V16.2505C3.7509 16.582 3.88259 16.8999 4.11701 17.1343C4.35143 17.3688 4.66938 17.5005 5.0009 17.5005H15.0009C15.3324 17.5005 15.6504 17.3688 15.8848 17.1343C16.1192 16.8999 16.2509 16.582 16.2509 16.2505V12.7028C16.9983 12.3473 17.6298 11.7875 18.0722 11.088C18.5147 10.3886 18.75 9.5781 18.7509 8.75046ZM15.0009 16.2505H5.0009V13.0801C5.20786 13.1103 5.41674 13.1255 5.6259 13.1255H14.3759C14.5851 13.1255 14.7939 13.1103 15.0009 13.0801V16.2505ZM14.3759 11.8755H13.3017L13.7321 10.152C13.7692 9.99235 13.742 9.82453 13.6565 9.68471C13.5709 9.54489 13.4339 9.44426 13.2749 9.40451C13.1159 9.36476 12.9476 9.38906 12.8063 9.47218C12.6651 9.5553 12.5621 9.69059 12.5196 9.8489L12.0126 11.8755H10.6259V10.0005C10.6259 9.8347 10.5601 9.67573 10.4428 9.55852C10.3256 9.44131 10.1667 9.37546 10.0009 9.37546C9.83514 9.37546 9.67617 9.44131 9.55896 9.55852C9.44175 9.67573 9.3759 9.8347 9.3759 10.0005V11.8755H7.98918L7.48215 9.8489C7.46341 9.76806 7.42875 9.69177 7.38022 9.62447C7.33168 9.55717 7.27022 9.50021 7.19944 9.45691C7.12866 9.41361 7.04996 9.38484 6.96794 9.37227C6.88592 9.35971 6.80221 9.3636 6.72171 9.38373C6.64121 9.40385 6.56553 9.43981 6.49907 9.48949C6.43261 9.53917 6.37671 9.6016 6.33463 9.67311C6.29255 9.74463 6.26513 9.82381 6.25397 9.90603C6.24282 9.98826 6.24815 10.0719 6.26965 10.152L6.70012 11.8755H5.6259C4.7971 11.8755 4.00224 11.5462 3.41619 10.9602C2.83014 10.3741 2.5009 9.57926 2.5009 8.75046C2.5009 7.92166 2.83014 7.1268 3.41619 6.54075C4.00224 5.9547 4.7971 5.62546 5.6259 5.62546H5.67121C5.64097 5.83242 5.62583 6.0413 5.6259 6.25046C5.6259 6.41622 5.69175 6.57519 5.80896 6.6924C5.92617 6.80961 6.08514 6.87546 6.2509 6.87546C6.41666 6.87546 6.57563 6.80961 6.69284 6.6924C6.81005 6.57519 6.8759 6.41622 6.8759 6.25046C6.8759 5.42166 7.20514 4.6268 7.79119 4.04075C8.37724 3.4547 9.1721 3.12546 10.0009 3.12546C10.8297 3.12546 11.6246 3.4547 12.2106 4.04075C12.7967 4.6268 13.1259 5.42166 13.1259 6.25046C13.1259 6.41622 13.1917 6.57519 13.309 6.6924C13.4262 6.80961 13.5851 6.87546 13.7509 6.87546C13.9167 6.87546 14.0756 6.80961 14.1928 6.6924C14.31 6.57519 14.3759 6.41622 14.3759 6.25046C14.376 6.0413 14.3608 5.83242 14.3306 5.62546H14.3759C15.2047 5.62546 15.9996 5.9547 16.5856 6.54075C17.1717 7.1268 17.5009 7.92166 17.5009 8.75046C17.5009 9.57926 17.1717 10.3741 16.5856 10.9602C15.9996 11.5462 15.2047 11.8755 14.3759 11.8755Z" fill="#FEFEFE"/>
</svg>
