<svg width="20" height="20" viewBox="0 0 20 20" fill="none" xmlns="http://www.w3.org/2000/svg">
<path d="M5.625 11.25H2.5C2.33424 11.25 2.17527 11.1842 2.05806 11.0669C1.94085 10.9497 1.875 10.7908 1.875 10.625C1.875 10.4592 1.94085 10.3003 2.05806 10.1831C2.17527 10.0658 2.33424 10 2.5 10H5.29063L6.35469 8.40312C6.41174 8.3174 6.48909 8.24709 6.57987 8.19846C6.67064 8.14984 6.77202 8.12439 6.875 8.12439C6.97798 8.12439 7.07936 8.14984 7.17013 8.19846C7.26091 8.24709 7.33826 8.3174 7.39531 8.40312L9.375 11.3719L10.1047 10.2781C10.1618 10.1925 10.2392 10.1223 10.33 10.0738C10.4207 10.0253 10.5221 9.99993 10.625 10H12.5C12.6658 10 12.8247 10.0658 12.9419 10.1831C13.0592 10.3003 13.125 10.4592 13.125 10.625C13.125 10.7908 13.0592 10.9497 12.9419 11.0669C12.8247 11.1842 12.6658 11.25 12.5 11.25H10.9594L9.89531 12.8469C9.83826 12.9326 9.76091 13.0029 9.67013 13.0515C9.57936 13.1002 9.47798 13.1256 9.375 13.1256C9.27202 13.1256 9.17064 13.1002 9.07987 13.0515C8.98909 13.0029 8.91174 12.9326 8.85469 12.8469L6.875 9.87656L6.14531 10.9703C6.08837 11.0562 6.01107 11.1267 5.92029 11.1755C5.8295 11.2243 5.72806 11.2499 5.625 11.25ZM13.9062 3.125C12.293 3.125 10.8805 3.81875 10 4.99141C9.11953 3.81875 7.70703 3.125 6.09375 3.125C4.80955 3.12645 3.57837 3.63723 2.6703 4.5453C1.76223 5.45337 1.25145 6.68455 1.25 7.96875C1.25 8.02734 1.25 8.08594 1.25 8.14453C1.25518 8.31029 1.326 8.46721 1.44687 8.58075C1.56774 8.6943 1.72877 8.75518 1.89453 8.75C2.06029 8.74482 2.21721 8.674 2.33075 8.55313C2.4443 8.43226 2.50518 8.27123 2.5 8.10547C2.5 8.06016 2.5 8.01406 2.5 7.96875C2.50124 7.01601 2.88026 6.10265 3.55396 5.42896C4.22765 4.75526 5.14101 4.37624 6.09375 4.375C7.61328 4.375 8.88906 5.18438 9.42188 6.48438C9.46896 6.59901 9.54907 6.69705 9.65201 6.76605C9.75494 6.83505 9.87607 6.8719 10 6.8719C10.1239 6.8719 10.2451 6.83505 10.348 6.76605C10.4509 6.69705 10.531 6.59901 10.5781 6.48438C11.1109 5.18203 12.3867 4.375 13.9062 4.375C14.859 4.37624 15.7724 4.75526 16.446 5.42896C17.1197 6.10265 17.4988 7.01601 17.5 7.96875C17.5 12.157 11.425 15.9492 10 16.7812C9.15391 16.2883 6.66953 14.75 4.79063 12.7023C4.73512 12.6418 4.66824 12.5928 4.59379 12.5581C4.51935 12.5234 4.43881 12.5038 4.35676 12.5002C4.27471 12.4967 4.19276 12.5093 4.1156 12.5374C4.03843 12.5655 3.96756 12.6086 3.90703 12.6641C3.8465 12.7196 3.79749 12.7864 3.76281 12.8609C3.72813 12.9353 3.70845 13.0159 3.70489 13.0979C3.70134 13.18 3.71398 13.2619 3.74209 13.3391C3.77021 13.4163 3.81325 13.4871 3.86875 13.5477C6.30391 16.2039 9.56641 17.9758 9.70391 18.05C9.79492 18.099 9.89665 18.1246 10 18.1246C10.1033 18.1246 10.2051 18.099 10.2961 18.05C10.6414 17.8641 18.75 13.4375 18.75 7.96875C18.7486 6.68455 18.2378 5.45337 17.3297 4.5453C16.4216 3.63723 15.1904 3.12645 13.9062 3.125Z" fill="#FEFEFE"/>
</svg>
